<?xml version="1.0" encoding="UTF-8"?>
<svg width="19px" height="22px" viewBox="0 0 19 22" version="1.1" xmlns="http://www.w3.org/2000/svg" xmlns:xlink="http://www.w3.org/1999/xlink">
    <!-- Generator: Sketch 54.1 (76490) - https://sketchapp.com -->
    <title>avatar</title>
    <desc>Created with Sketch.</desc>
    <g id="Symbols" stroke="none" stroke-width="1" fill="none" fill-rule="evenodd">
        <g id="Footer" transform="translate(-1291.000000, -319.000000)" fill="#1B52D8">
            <g id="1">
                <g transform="translate(1259.000000, 300.000000)">
                    <g id="avatar">
                        <g transform="translate(32.000000, 19.000000)">
                            <path d="M9.25190217,11.8180901 C9.2746118,11.8180901 9.29732143,11.8180901 9.32457298,11.8180901 C9.33365683,11.8180901 9.34274068,11.8180901 9.35182453,11.8180901 C9.36545031,11.8180901 9.38361801,11.8180901 9.39724379,11.8180901 C10.728028,11.7953804 11.8044643,11.3275621 12.5993012,10.4328028 C14.3479425,8.46160714 14.0572593,5.0824146 14.0254658,4.75993789 C13.9119177,2.33909161 12.7673525,1.18090062 11.822632,0.640411491 C11.1186335,0.236180124 10.296545,0.0181677019 9.37907609,0 L9.34728261,0 C9.34274068,0 9.33365683,0 9.32911491,0 L9.30186335,0 C8.79770963,0 7.80756988,0.0817546584 6.85830745,0.622243789 C5.90450311,1.16273292 4.74177019,2.32092391 4.62822205,4.75993789 C4.59642857,5.0824146 4.30574534,8.46160714 6.05438665,10.4328028 C6.84468168,11.3275621 7.92111801,11.7953804 9.25190217,11.8180901 Z M5.84091615,4.87348602 C5.84091615,4.85986025 5.84545807,4.84623447 5.84545807,4.83715062 C5.99534161,1.58059006 8.30718168,1.2308618 9.29732143,1.2308618 L9.31548913,1.2308618 C9.32457298,1.2308618 9.33819876,1.2308618 9.35182453,1.2308618 C10.5781444,1.25811335 12.6628882,1.75772516 12.8036879,4.83715062 C12.8036879,4.8507764 12.8036879,4.86440217 12.8082298,4.87348602 C12.8127717,4.9052795 13.1307065,7.99378882 11.6863742,9.61979814 C11.1140916,10.2647516 10.3510481,10.5826863 9.34728261,10.5917702 C9.33819876,10.5917702 9.33365683,10.5917702 9.32457298,10.5917702 L9.32457298,10.5917702 C9.31548913,10.5917702 9.3109472,10.5917702 9.30186335,10.5917702 C8.30263975,10.5826863 7.53505435,10.2647516 6.96731366,9.61979814 C5.52752329,8.00287267 5.83637422,4.90073758 5.84091615,4.87348602 Z" id="Shape" fill-rule="nonzero"></path>
                            <path d="M18.6582298,17.4228261 C18.6582298,17.4182842 18.6582298,17.4137422 18.6582298,17.4092003 C18.6582298,17.3728649 18.6536879,17.3365295 18.6536879,17.2956522 C18.6264363,16.3963509 18.5673913,14.2934394 16.5961957,13.6212345 C16.5825699,13.6166925 16.5644022,13.6121506 16.5507764,13.6076087 C14.502368,13.0852873 12.799146,11.9043866 12.7809783,11.8907609 C12.5039208,11.6954581 12.1223991,11.763587 11.9270963,12.0406444 C11.7317935,12.3177019 11.7999224,12.6992236 12.0769798,12.8945264 C12.1541925,12.9490295 13.9618789,14.2071429 16.2237578,14.7885093 C17.2820264,15.1654891 17.4001165,16.2964286 17.4319099,17.3319876 C17.4319099,17.3728649 17.4319099,17.4092003 17.4364519,17.4455357 C17.4409938,17.854309 17.4137422,18.4856366 17.3410714,18.8489907 C16.6052795,19.2668478 13.7211568,20.7111801 9.33365683,20.7111801 C4.96432453,20.7111801 2.06203416,19.2623059 1.32170031,18.8444488 C1.2490295,18.4810947 1.21723602,17.8497671 1.22631988,17.4409938 C1.22631988,17.4046584 1.2308618,17.368323 1.2308618,17.3274457 C1.26265528,16.2918866 1.38074534,15.1609472 2.43901398,14.7839674 C4.70089286,14.2026009 6.50857919,12.9399457 6.58579193,12.8899845 C6.86284938,12.6946817 6.93097826,12.3131599 6.73567547,12.0361025 C6.54037267,11.759045 6.15885093,11.6909161 5.88179348,11.8862189 C5.86362578,11.8998447 4.16948758,13.0807453 2.11199534,13.6030668 C2.09382764,13.6076087 2.08020186,13.6121506 2.06657609,13.6166925 C0.0953804348,14.2934394 0.0363354037,16.3963509 0.00908385093,17.2911102 C0.00908385093,17.3319876 0.00908385093,17.368323 0.00454192547,17.4046584 C0.00454192547,17.4092003 0.00454192547,17.4137422 0.00454192547,17.4182842 C1.30104261e-18,17.6544643 -0.00454192547,18.8671584 0.236180124,19.4757764 C0.281599379,19.5938665 0.363354037,19.6937888 0.472360248,19.7619177 C0.608618012,19.8527562 3.87426242,21.9329581 9.33819876,21.9329581 C14.8021351,21.9329581 18.0677795,19.8482143 18.2040373,19.7619177 C18.3085016,19.6937888 18.3947981,19.5938665 18.4402174,19.4757764 C18.6673137,18.8717003 18.6627717,17.6590062 18.6582298,17.4228261 Z" id="Path"></path>
                        </g>
                    </g>
                </g>
            </g>
        </g>
    </g>
</svg>