<?xml version="1.0" encoding="UTF-8"?>
<svg width="25px" height="23px" viewBox="0 0 25 23" version="1.1" xmlns="http://www.w3.org/2000/svg" xmlns:xlink="http://www.w3.org/1999/xlink">
    <!-- Generator: Sketch 54.1 (76490) - https://sketchapp.com -->
    <title>noun_contact_2466828</title>
    <desc>Created with Sketch.</desc>
    <g id="Symbols" stroke="none" stroke-width="1" fill="none" fill-rule="evenodd">
        <g id="Footer" transform="translate(-1288.000000, -479.000000)" fill="#1B52D8" fill-rule="nonzero" stroke="#1B52D8" stroke-width="0.2">
            <g id="1">
                <g transform="translate(1259.000000, 300.000000)">
                    <g id="2-copy-3" transform="translate(0.000000, 160.000000)">
                        <g id="noun_contact_2466828" transform="translate(30.000000, 20.000000)">
                            <path d="M0,5.75221958 C0,6.63455046 0.330987898,7.43416281 0.965381368,8.06833813 L12.9361103,20.0349506 C13.5429215,20.6415531 14.3703912,21 15.2530256,21 C16.13566,21 16.9355474,20.6691259 17.5699409,20.0349506 L19.6110329,17.9945605 C20.1902618,17.4155308 20.1902618,16.4780543 19.6110329,15.8990246 L16.9355474,13.2244592 C16.3563186,12.6454295 15.4185196,12.6454295 14.8392907,13.2244592 L11.9431466,16.0644617 L12.4396285,16.5607728 L15.3081903,13.6931974 C15.6115958,13.3898962 16.13566,13.3898962 16.4390656,13.6931974 L19.1145511,16.3677629 C19.2524627,16.5056271 19.3352097,16.7262098 19.3352097,16.9192197 C19.3352097,17.1122296 19.2524627,17.3328123 19.1145511,17.4706765 L17.073459,19.5110666 C16.5769772,20.0073778 15.9425837,20.2555333 15.2530256,20.2555333 C14.5634675,20.2555333 13.929074,19.9798049 13.4325922,19.5110666 L3.80636082,9.91571839 L7.66788629,6.05552082 C8.24711511,5.47649118 8.24711511,4.53901463 7.66788629,3.95998499 L5.10273009,1.39571089 C4.82690684,1.11998249 4.44075429,0.954545455 4.05460175,0.954545455 C3.6684492,0.954545455 3.28229665,1.11998249 3.0064734,1.39571089 L0.965381368,3.43610104 C0.330987898,4.04270351 0,4.86988871 0,5.75221958 Z M3.47537292,1.89202201 C3.61328455,1.75415781 3.83394315,1.67143929 4.02701942,1.67143929 C4.22009569,1.67143929 4.44075429,1.75415781 4.57866592,1.89202201 L7.14382212,4.45629611 C7.44722769,4.75959735 7.44722769,5.28348131 7.14382212,5.58678254 L3.28229665,9.44698012 L1.43428089,7.57202701 C0.937799043,7.07571589 0.68955812,6.44154058 0.68955812,5.75221958 C0.68955812,5.06289859 0.965381368,4.42872327 1.43428089,3.93241215 L3.47537292,1.89202201 Z" id="Shape"></path>
                            <path d="M23.8636364,7.01813472 L23.8636364,0.353626943 C23.8636364,0.163212435 23.7045455,0 23.5189394,0 L10.844697,0 C10.6590909,0 10.5,0.163212435 10.5,0.353626943 L10.5,7.04533679 C10.5,7.2357513 10.6590909,7.39896373 10.844697,7.39896373 L13.8409091,7.39896373 L13.8409091,10.1735751 C13.8409091,10.3095855 13.9204545,10.4183938 14.0265152,10.4727979 C14.0795455,10.5 14.1325758,10.5 14.1590909,10.5 C14.2386364,10.5 14.3181818,10.4727979 14.3712121,10.4183938 L17.9507576,7.39896373 L23.5189394,7.39896373 C23.7045455,7.37176166 23.8636364,7.20854922 23.8636364,7.01813472 Z M23.2007576,6.69170984 L17.844697,6.69170984 C17.7651515,6.69170984 17.6856061,6.71891192 17.6325758,6.77331606 L14.5037879,9.4119171 L14.5037879,7.01813472 C14.5037879,6.82772021 14.344697,6.66450777 14.1590909,6.66450777 L11.1893939,6.66450777 L11.1893939,3.78108808 L19.7007576,3.78108808 L19.7007576,3.10103627 L11.1893939,3.10103627 L11.1893939,0.680051813 L23.2007576,0.680051813 L23.2007576,6.69170984 L23.2007576,6.69170984 Z" id="Shape"></path>
                        </g>
                    </g>
                </g>
            </g>
        </g>
    </g>
</svg>