<?xml version="1.0" encoding="UTF-8"?>
<svg width="106px" height="22px" viewBox="0 0 106 22" version="1.1" xmlns="http://www.w3.org/2000/svg" xmlns:xlink="http://www.w3.org/1999/xlink">
    <!-- Generator: sketchtool 54.1 (76490) - https://sketchapp.com -->
    <title>8C5A3FE5-B86A-4E24-880A-24D5FEC6C6E2</title>
    <desc>Created with sketchtool.</desc>
    <defs>
        <polygon id="path-1" points="0.119812207 0.148886994 16.5707954 0.148886994 16.5707954 15.7142857 0.119812207 15.7142857"></polygon>
        <polygon id="path-3" points="0.0552857143 0.148840085 15.6740952 0.148840085 15.6740952 15.7142857 0.0552857143 15.7142857"></polygon>
        <polygon id="path-5" points="0.0997912867 0.181607914 11.45908 0.181607914 11.45908 19.3518519 0.0997912867 19.3518519"></polygon>
        <polygon id="path-7" points="0.103919255 0.124826087 5.13674948 0.124826087 5.13674948 5.15772464 0.103919255 5.15772464"></polygon>
    </defs>
    <g id="Docent" stroke="none" stroke-width="1" fill="none" fill-rule="evenodd">
        <g id="home-111a" transform="translate(-405.000000, -3950.000000)">
            <g id="Footer" transform="translate(1.000000, 3341.000000)">
                <g id="Bottom" transform="translate(0.000000, 580.000000)">
                    <g id="Logo" transform="translate(404.000000, 29.000000)">
                        <g>
                            <path d="M15.2125689,10.4763077 C15.2125689,4.51966524 12.2537498,0.59852554 7.77067629,0.59852554 L4.57276304,0.59852554 L4.57276304,20.3538554 L7.77067629,20.3538554 C12.2537498,20.3538554 15.2125689,16.4327157 15.2125689,10.4763077 M19.9047619,10.4763077 C19.9047619,16.4327157 14.9734748,20.952381 8.45821828,20.952381 L0,20.952381 L0,0 L8.45821828,0 C14.9734748,0 19.9047619,4.51966524 19.9047619,10.4763077" id="Fill-1" fill="#1F2949"></path>
                            <g id="Group-5" transform="translate(20.952381, 5.238095)">
                                <mask id="mask-2" fill="white">
                                    <use xlink:href="#path-1"></use>
                                </mask>
                                <g id="Clip-4"></g>
                                <path d="M11.840397,7.93168017 C11.840397,3.4416162 10.4843353,0.747671642 8.34518578,0.747671642 C6.17581757,0.747671642 4.8502106,3.4416162 4.8502106,7.93168017 C4.8502106,12.4215096 6.17581757,15.1156887 8.34518578,15.1156887 C10.4843353,15.1156887 11.840397,12.4215096 11.840397,7.93168017 M0.119812207,7.93168017 C0.119812207,3.50142431 3.64500604,0.148886994 8.34518578,0.148886994 C13.015383,0.148886994 16.5707954,3.50142431 16.5707954,7.93168017 C16.5707954,12.3617015 13.015383,15.7144733 8.34518578,15.7144733 C3.64500604,15.7144733 0.119812207,12.3617015 0.119812207,7.93168017" id="Fill-3" fill="#1F2949" mask="url(#mask-2)"></path>
                            </g>
                            <path d="M53.4285714,18.2629685 C52.6275697,19.8039701 50.3958393,20.952381 47.7350249,20.952381 C43.1572314,20.952381 39.8095238,17.537457 39.8095238,13.0953565 C39.8095238,8.62271062 43.1859267,5.23809524 47.7063296,5.23809524 C50.8823139,5.23809524 53.3427098,7.02085508 53.3427098,9.40836571 C53.3427098,10.6171569 52.4845416,11.5238095 51.3687886,11.5238095 C50.1669496,11.5238095 49.279862,10.6171569 49.279862,9.40836571 C49.279862,8.1995745 50.1669496,7.26285011 51.3687886,7.26285011 C51.4828971,7.26285011 51.6261493,7.29315869 51.7404821,7.32323048 C51.1112036,6.59795575 50.1669496,6.20512821 48.993806,6.20512821 C46.0469355,6.20512821 44.3016798,8.80385171 44.3016798,13.0953565 C44.3016798,17.3866245 46.1041019,19.9550394 49.1083629,19.9550394 C50.6818954,19.9550394 52.1697903,19.109004 52.8277641,17.8699042 L53.4285714,18.2629685 Z" id="Fill-6" fill="#1F2949"></path>
                            <g id="Group-10" transform="translate(54.476190, 5.238095)">
                                <mask id="mask-4" fill="white">
                                    <use xlink:href="#path-3"></use>
                                </mask>
                                <g id="Clip-9"></g>
                                <path d="M4.826,6.82412793 L11.298381,6.82412793 C11.2071905,2.99265672 10.0219524,0.747624733 8.16838095,0.747624733 C6.19314286,0.747624733 4.94766667,3.29169723 4.826,6.82412793 M15.4614762,11.6132324 C15.4614762,13.9483284 12.4531429,15.7144264 8.77647619,15.7144264 C3.6712381,15.7144264 0.0552857143,12.3616546 0.0552857143,7.90161194 C0.0552857143,3.4415693 3.6407619,0.148840085 8.13790476,0.148840085 C12.5138571,0.148840085 15.6740952,3.29169723 15.6740952,7.42267804 L4.826,7.42267804 C4.826,12.3914414 6.7707619,14.7863454 10.143619,14.7863454 C11.4807619,14.7863454 12.666,14.3972409 13.4255238,13.7386482 L13.3038571,13.7386482 C12.0888571,13.7386482 11.1464762,12.8405885 11.1464762,11.6132324 C11.1464762,10.445919 12.0888571,9.51783795 13.3648095,9.51783795 C14.5500476,9.51783795 15.4614762,10.445919 15.4614762,11.6132324" id="Fill-8" fill="#1F2949" mask="url(#mask-4)"></path>
                            </g>
                            <path d="M86.952381,10.3223206 L86.952381,20.952381 L82.1343368,20.952381 L82.1343368,9.24386316 C82.1343368,7.79577999 81.0952717,6.68641984 79.6781854,6.68641984 C78.197931,6.68641984 76.7495074,7.76487725 76.0563862,9.3672327 L76.0563862,20.952381 L71.2380952,20.952381 L71.2380952,6.19342453 L76.0563862,5.39236752 L76.0563862,8.1038417 C77.158866,6.37835813 79.2369961,5.23809524 81.5677984,5.23809524 C84.6852402,5.23809524 86.952381,7.42567137 86.952381,10.3223206" id="Fill-11" fill="#1F2949"></path>
                            <g id="Group-15" transform="translate(88.000000, 2.095238)">
                                <mask id="mask-6" fill="white">
                                    <use xlink:href="#path-5"></use>
                                </mask>
                                <g id="Clip-14"></g>
                                <path d="M11.45908,17.0877543 C11.1462209,18.3815638 9.14352989,19.351921 6.98440932,19.351921 C4.10541844,19.351921 1.97768186,17.6466542 1.97768186,15.3824875 L1.97768186,4.94492802 L0.0997912867,4.94492802 L0.0997912867,4.35676995 L1.97768186,4.35676995 L1.97768186,1.15196506 L6.76521175,0.181607914 L6.76521175,4.35676995 L10.7705937,4.35676995 L10.7705937,4.94492802 L6.76521175,4.94492802 L6.76521175,16.1173972 C6.76521175,17.35246 7.61012766,18.2638401 8.76790274,18.2638401 C9.70697062,18.2638401 10.6455481,17.6466542 10.9586525,16.8235094 L11.45908,17.0877543 Z" id="Fill-13" fill="#1F2949" mask="url(#mask-6)"></path>
                            </g>
                            <g id="Group-18" transform="translate(100.571429, 16.761905)">
                                <mask id="mask-8" fill="white">
                                    <use xlink:href="#path-7"></use>
                                </mask>
                                <g id="Clip-17"></g>
                                <path d="M5.13681781,2.64138923 C5.13681781,4.03107867 4.01017184,5.15772464 2.6204824,5.15772464 C1.23079296,5.15772464 0.103919255,4.03107867 0.103919255,2.64138923 C0.103919255,1.25147205 1.23079296,0.124826087 2.6204824,0.124826087 C4.01017184,0.124826087 5.13681781,1.25147205 5.13681781,2.64138923" id="Fill-16" fill="#1B52D8" mask="url(#mask-8)"></path>
                            </g>
                        </g>
                    </g>
                </g>
            </g>
        </g>
    </g>
</svg>