<?xml version="1.0" encoding="UTF-8"?>
<svg width="24px" height="22px" viewBox="0 0 24 22" version="1.1" xmlns="http://www.w3.org/2000/svg" xmlns:xlink="http://www.w3.org/1999/xlink">
    <!-- Generator: Sketch 54.1 (76490) - https://sketchapp.com -->
    <title>mortarboard (4)</title>
    <desc>Created with Sketch.</desc>
    <g id="Symbols" stroke="none" stroke-width="1" fill="none" fill-rule="evenodd">
        <g id="Footer" transform="translate(-1289.000000, -399.000000)" fill="#1B52D8">
            <g id="1">
                <g transform="translate(1259.000000, 300.000000)">
                    <g id="2" transform="translate(0.000000, 80.000000)">
                        <g id="mortarboard-(4)" transform="translate(30.000000, 19.000000)">
                            <path d="M16.5433074,19.5963373 C16.3333866,19.543054 16.1207581,19.6715123 16.068668,19.8810659 L15.6770515,21.4475778 C15.6241812,21.6578657 15.7522265,21.8701271 15.9621472,21.9226302 C15.9938602,21.9308453 16.0259863,21.9343792 16.0573321,21.9343792 C16.2327862,21.9343792 16.3921773,21.8156964 16.4368325,21.6379017 L16.828449,20.0713898 C16.8809063,19.861469 16.7532282,19.6488405 16.5433074,19.5963373 Z" id="Path"></path>
                            <path d="M11.748954,11.751983 C11.7998508,11.751983 11.8507935,11.7422075 11.8985696,11.7222435 L16.2065346,9.93952327 C16.4062669,9.85686755 16.5010387,9.62776294 16.4184289,9.42803073 C16.3357731,9.22788546 16.1058883,9.13389383 15.9065692,9.21576935 L11.748954,10.9365781 L0.783278896,6.39914121 L0.783278896,6.26912252 C0.783278896,6.05296012 0.607824791,5.87750601 0.391662395,5.87750601 C0.1755,5.87750601 0,6.05296012 0,6.26912252 L0,6.66073902 C0,6.8193499 0.0955520397,6.9623108 0.24204681,7.02261598 L11.5993843,11.7221976 C11.6471144,11.7421616 11.6980571,11.751983 11.748954,11.751983 Z" id="Path"></path>
                            <path d="M16.4078273,15.7642508 C16.3122752,15.570393 16.0780764,15.490491 15.8834384,15.5864561 C15.1397204,15.9542075 13.8974521,16.3818511 12.1406164,16.4402287 L12.1406164,12.9268784 C12.1406164,12.710716 11.9651623,12.5352619 11.7489999,12.5352619 C11.5328375,12.5352619 11.3573834,12.710716 11.3573834,12.9268784 L11.3573834,16.4366948 C6.49450968,16.2816178 4.92524412,13.3357512 4.69962748,12.8454159 L4.69962748,10.1854711 C4.69962748,9.96930871 4.52417338,9.7938546 4.30801098,9.7938546 C4.09184859,9.7938546 3.91639448,9.96930871 3.91639448,10.1854711 L3.91639448,12.9268784 C3.91639448,12.9766279 3.92580282,13.0259643 3.94420646,13.0725471 C4.01235957,13.2421267 5.67915063,17.2347976 11.7490458,17.2347976 C13.8705122,17.2347976 15.3571679,16.7201842 16.2304915,16.2885937 C16.4246246,16.1926746 16.5041595,15.9581085 16.4078273,15.7642508 Z" id="Path"></path>
                            <path d="M17.623431,19.9762508 C17.4068555,19.9762508 17.2318145,20.1517049 17.2318145,20.3678673 L17.2318145,21.5427627 C17.2318145,21.7589251 17.4068555,21.9343792 17.623431,21.9343792 C17.8400064,21.9343792 18.0150475,21.7589251 18.0150475,21.5427627 L18.0150475,20.3678673 C18.0150475,20.1517049 17.8400064,19.9762508 17.623431,19.9762508 Z" id="Path"></path>
                            <path d="M23.1062914,5.87440815 C22.889716,5.87440815 22.7146749,6.04986225 22.7146749,6.26602465 L22.7146749,6.39526314 L18.0150934,8.32952648 L18.0150934,7.62183558 L23.255907,5.45296032 C23.4023559,5.39265514 23.4979538,5.24969423 23.4979538,5.09108336 C23.4979538,4.93247248 23.4024018,4.78992462 23.2563201,4.72920639 L11.8985696,0.0296706982 C11.8026045,-0.00989023274 11.6953035,-0.00989023274 11.5993843,0.0296706982 L0.24204681,4.72925229 C0.0955520397,4.78997052 0,4.93251837 0,5.09112925 C0,5.24974013 0.0955520397,5.39270103 0.24204681,5.45300621 L11.5993843,10.1525878 C11.6471603,10.1725518 11.6980571,10.1823732 11.7489999,10.1823732 C11.7999426,10.1823732 11.8508394,10.1725977 11.8986155,10.1525878 L16.0052879,8.45330354 C16.2054332,8.37106087 16.300205,8.14195626 16.2175493,7.941811 C16.1348936,7.74207878 15.905789,7.6476741 15.7060567,7.72991678 L11.748954,9.36696829 L1.41574895,5.09112925 L11.748954,0.815290207 L22.082159,5.09112925 L17.5858435,6.95177805 L13.2790717,5.34373176 C13.3017894,5.26226929 13.3155118,5.1784662 13.3155118,5.09112925 C13.3155118,4.43240762 12.6274178,3.91623385 11.7489999,3.91623385 C10.870582,3.91623385 10.182488,4.43240762 10.182488,5.09112925 C10.182488,5.74985088 10.870582,6.26602465 11.7489999,6.26602465 C12.1410294,6.26602465 12.4907444,6.15909081 12.7625307,5.98680341 L17.2318145,7.65556793 L17.2318145,8.91036539 L17.2318145,8.91077844 L17.2318145,17.3038456 C16.7771391,17.4663575 16.4485356,17.8967548 16.4485356,18.4066869 C16.4485356,19.0544398 16.9756781,19.5815823 17.623431,19.5815823 C18.2711838,19.5815823 18.7983264,19.0544398 18.7983264,18.4066869 C18.7983264,17.8968007 18.4697687,17.4664034 18.0150475,17.3038456 L18.0150475,15.0809527 C19.1394132,14.2322744 19.5424115,13.1020342 19.5600349,13.0519176 C19.5741245,13.0107962 19.5815594,12.9673343 19.5815594,12.9238723 L19.5815594,10.182465 C19.5815594,9.96630263 19.4065183,9.79084852 19.1899429,9.79084852 C18.9733674,9.79084852 18.7983264,9.96630263 18.7983264,10.182465 L18.7983264,12.851451 C18.7305863,13.0174968 18.4951942,13.5293565 18.0150475,14.0345615 L18.0150475,9.17664442 L23.255494,7.01993116 C23.4023559,6.95962598 23.4979079,6.81629792 23.4979079,6.65768704 L23.4979079,6.26607054 C23.4979079,6.04986225 23.3228669,5.87440815 23.1062914,5.87440815 Z M11.748954,5.48274575 C11.2707807,5.48274575 10.9656751,5.25088749 10.9656751,5.09112925 C10.9656751,4.93132512 11.2707348,4.69951275 11.748954,4.69951275 C12.2271731,4.69951275 12.5322329,4.93137101 12.5322329,5.09112925 C12.5322329,5.25093338 12.2271272,5.48274575 11.748954,5.48274575 Z M17.623431,18.7982575 C17.4072686,18.7982575 17.2318145,18.6224363 17.2318145,18.406641 C17.2318145,18.1908458 17.4072686,18.0150245 17.623431,18.0150245 C17.8395934,18.0150245 18.0150475,18.1908458 18.0150475,18.406641 C18.0150475,18.6223904 17.8395934,18.7982575 17.623431,18.7982575 Z" id="Shape" fill-rule="nonzero"></path>
                            <path d="M19.1781939,19.8810659 C19.1257367,19.6715582 18.9126492,19.5434671 18.7035545,19.5963373 C18.4936338,19.6487946 18.3659557,19.861469 18.4184588,20.0713898 L18.8100753,21.6379017 C18.8547305,21.8156964 19.0141216,21.9343792 19.1895757,21.9343792 C19.2209215,21.9343792 19.2530017,21.9308453 19.2847606,21.9226302 C19.4946814,21.870173 19.6223594,21.6578657 19.5698563,21.4475778 L19.1781939,19.8810659 Z" id="Path"></path>
                        </g>
                    </g>
                </g>
            </g>
        </g>
    </g>
</svg>