<?xml version="1.0" encoding="UTF-8"?>
<svg width="73px" height="70px" viewBox="0 0 73 70" version="1.1" xmlns="http://www.w3.org/2000/svg" xmlns:xlink="http://www.w3.org/1999/xlink">
    <!-- Generator: sketchtool 54.1 (76490) - https://sketchapp.com -->
    <title>FE7440EA-BD9A-4C2F-A558-A3EFD5EF775E</title>
    <desc>Created with sketchtool.</desc>
    <g id="Docent" stroke="none" stroke-width="1" fill="none" fill-rule="evenodd">
        <g id="home-111a" transform="translate(-924.000000, -1729.000000)">
            <g id="Testimonial" transform="translate(25.000000, 1729.000000)">
                <g id="speak" transform="translate(899.000000, 0.000000)">
                    <g id="Group" transform="translate(36.500000, 35.000000) scale(-1, 1) rotate(-180.000000) translate(-36.500000, -35.000000) translate(0.000000, -0.000000)">
                        <g id="Path">
                            <g>
                                <g transform="translate(55.765199, 10.639413)" fill="#1B52D8">
                                    <path d="M16.7341457,12.8292977 C16.7403826,11.6751048 15.8096174,10.7379193 14.6512055,10.7359015 L4.21559224,10.7087526 C3.06341719,10.7045335 2.13063417,11.6417191 2.12843291,12.7896751 C2.12219602,13.948087 3.05516247,14.8810535 4.20513627,14.8850891 L14.6407495,14.9122379 C15.7949423,14.9122379 16.7321279,13.9834906 16.7341457,12.8292977"></path>
                                    <path d="M13.4197851,24.2855608 C13.9165356,23.243999 13.4718816,22.0001048 12.4284853,21.5033543 L3.00306604,17.0265461 C1.96370545,16.5340147 0.719811321,16.9784853 0.227279874,18.0200472 C-0.273689727,19.0594078 0.17298218,20.3033019 1.21454403,20.8022537 L10.6399633,25.277044 C11.6833595,25.769392 12.9250524,25.3269392 13.4197851,24.2855608"></path>
                                    <path d="M13.4823375,1.3543239 C13.9706499,2.39992138 13.5241614,3.64179769 12.4805818,4.13011006 L3.03003145,8.55904088 C1.98443396,9.05157233 0.744575472,8.6028826 0.254245283,7.55930294 C-0.234067086,6.51370545 0.214622642,5.27182914 1.26022013,4.78351677 L10.7065514,0.352568134 C11.750131,-0.137945493 12.996043,0.310744235 13.4823375,1.3543239"></path>
                                </g>
                                <path d="M56.0986897,40.7480346 C53.1350629,41.6224843 50.4781447,43.9767296 49.5534329,45.4440514 C47.9672432,47.9652254 49.8790356,48.6186321 49.2320493,55.6479822 C48.6393606,62.0826258 39.7794811,69.0033805 29.0078092,69.7068658 C24.1134958,70.0262317 19.0208857,69.0264937 13.8031709,66.1732966 C0.403930818,58.8454927 -4.9077044,43.356892 5.44224319,28.3986111 C14.7717243,14.9159067 6.01823899,8.8235587 6.01823899,8.8235587 C6.01823899,8.8235587 6.36475367,5.98503669 12.100131,2.16988994 C17.8377096,-1.64544025 24.8753145,0.942688679 24.8753145,0.942688679 C24.8753145,0.942688679 27.196174,9.1952044 34.7850105,8.43540356 C40.226153,7.63396226 47.8628669,8.70248952 49.7935535,10.5726415 C51.6009696,12.3195231 49.4784067,14.5088574 50.9185797,19.3886792 C45.9826258,19.8707547 43.2714099,22.225 43.0105608,25.5415618 C48.4893082,25.0094078 50.7474319,26.7478512 52.3128931,28.6618449 C52.2710692,29.7888889 52.1564203,32.180739 52.0498428,33.7836216 C56.8938941,35.1858229 58.7493711,39.965304 56.0986897,40.7480346" fill="#E8ECEE"></path>
                            </g>
                        </g>
                    </g>
                </g>
            </g>
        </g>
    </g>
</svg>